<svg width="24" height="24" viewBox="0 0 24 24" fill="none" xmlns="http://www.w3.org/2000/svg">
<path d="M5 12.0054C5 12.2216 5.07447 12.4054 5.23404 12.5568L13.7447 20.7838C13.883 20.9243 14.0638 21 14.266 21C14.6809 21 15 20.6865 15 20.2541C15 20.0486 14.9149 19.8649 14.7979 19.7351L6.79787 12.0054L14.7979 4.27568C14.9149 4.13514 15 3.95135 15 3.74595C15 3.32432 14.6809 3 14.266 3C14.0638 3 13.883 3.07568 13.7447 3.21622L5.23404 11.4541C5.07447 11.6054 5 11.7892 5 12.0054Z" fill="black"/>
</svg>
